<?xml version="1.0" encoding="UTF-8" standalone="no"?>
<!DOCTYPE svg PUBLIC "-//W3C//DTD SVG 1.1//EN"
 "http://www.w3.org/Graphics/SVG/1.1/DTD/svg11.dtd">
<!-- Generated by graphviz version 2.42.4 (0)
 -->
<!-- Title: G Pages: 1 -->
<svg width="776pt" height="1110pt"
 viewBox="0.00 0.00 776.00 1110.00" xmlns="http://www.w3.org/2000/svg" xmlns:xlink="http://www.w3.org/1999/xlink">
<g id="graph0" class="graph" transform="scale(1 1) rotate(0) translate(18 1092)">
<title>G</title>
<polygon fill="white" stroke="transparent" points="-18,18 -18,-1092 758,-1092 758,18 -18,18"/>
<text text-anchor="middle" x="370" y="-1054" font-family="DejaVu Sans" font-size="20.00">GeoIssue — Report Submission Sequence</text>
<!-- actors -->
<g id="node1" class="node">
<title>actors</title>
<path fill="#f4f4f5" stroke="#d4d4d8" d="M728,-1044C728,-1044 12,-1044 12,-1044 6,-1044 0,-1038 0,-1032 0,-1032 0,-1020 0,-1020 0,-1014 6,-1008 12,-1008 12,-1008 728,-1008 728,-1008 734,-1008 740,-1014 740,-1020 740,-1020 740,-1032 740,-1032 740,-1038 734,-1044 728,-1044"/>
<text text-anchor="middle" x="370" y="-1022.3" font-family="DejaVu Sans" font-size="14.00" fill="#18181b">Browser → Firebase → Express API → Validation/Auth → Matching Service → Neon → Storage/Nominatim</text>
</g>
<!-- s1 -->
<g id="node2" class="node">
<title>s1</title>
<path fill="#fafafa" stroke="#d4d4d8" d="M549.5,-963C549.5,-963 190.5,-963 190.5,-963 184.5,-963 178.5,-957 178.5,-951 178.5,-951 178.5,-939 178.5,-939 178.5,-933 184.5,-927 190.5,-927 190.5,-927 549.5,-927 549.5,-927 555.5,-927 561.5,-933 561.5,-939 561.5,-939 561.5,-951 561.5,-951 561.5,-957 555.5,-963 549.5,-963"/>
<text text-anchor="middle" x="370" y="-941.3" font-family="DejaVu Sans" font-size="14.00" fill="#18181b">1. User signs in; browser receives Firebase ID token</text>
</g>
<!-- actors&#45;&gt;s1 -->
<g id="edge1" class="edge">
<title>actors&#45;&gt;s1</title>
<path fill="none" stroke="#71717a" d="M370,-1007.86C370,-997.2 370,-983.29 370,-971.37"/>
<polygon fill="#71717a" stroke="#71717a" points="372.8,-971.11 370,-963.11 367.2,-971.11 372.8,-971.11"/>
</g>
<!-- s2 -->
<g id="node3" class="node">
<title>s2</title>
<path fill="#fafafa" stroke="#d4d4d8" d="M526.5,-882C526.5,-882 213.5,-882 213.5,-882 207.5,-882 201.5,-876 201.5,-870 201.5,-870 201.5,-858 201.5,-858 201.5,-852 207.5,-846 213.5,-846 213.5,-846 526.5,-846 526.5,-846 532.5,-846 538.5,-852 538.5,-858 538.5,-858 538.5,-870 538.5,-870 538.5,-876 532.5,-882 526.5,-882"/>
<text text-anchor="middle" x="370" y="-860.3" font-family="DejaVu Sans" font-size="14.00" fill="#18181b">2. User chooses location and fills report form</text>
</g>
<!-- s1&#45;&gt;s2 -->
<g id="edge2" class="edge">
<title>s1&#45;&gt;s2</title>
<path fill="none" stroke="#71717a" d="M370,-926.86C370,-916.2 370,-902.29 370,-890.37"/>
<polygon fill="#71717a" stroke="#71717a" points="372.8,-890.11 370,-882.11 367.2,-890.11 372.8,-890.11"/>
</g>
<!-- s3 -->
<g id="node4" class="node">
<title>s3</title>
<path fill="#fafafa" stroke="#d4d4d8" d="M551,-801C551,-801 189,-801 189,-801 183,-801 177,-795 177,-789 177,-789 177,-777 177,-777 177,-771 183,-765 189,-765 189,-765 551,-765 551,-765 557,-765 563,-771 563,-777 563,-777 563,-789 563,-789 563,-795 557,-801 551,-801"/>
<text text-anchor="middle" x="370" y="-779.3" font-family="DejaVu Sans" font-size="14.00" fill="#18181b">3. Browser calls POST /api/reports with Bearer token</text>
</g>
<!-- s2&#45;&gt;s3 -->
<g id="edge3" class="edge">
<title>s2&#45;&gt;s3</title>
<path fill="none" stroke="#71717a" d="M370,-845.86C370,-835.2 370,-821.29 370,-809.37"/>
<polygon fill="#71717a" stroke="#71717a" points="372.8,-809.11 370,-801.11 367.2,-809.11 372.8,-809.11"/>
</g>
<!-- s4 -->
<g id="node5" class="node">
<title>s4</title>
<path fill="#fafafa" stroke="#d4d4d8" d="M543.5,-720C543.5,-720 196.5,-720 196.5,-720 190.5,-720 184.5,-714 184.5,-708 184.5,-708 184.5,-696 184.5,-696 184.5,-690 190.5,-684 196.5,-684 196.5,-684 543.5,-684 543.5,-684 549.5,-684 555.5,-690 555.5,-696 555.5,-696 555.5,-708 555.5,-708 555.5,-714 549.5,-720 543.5,-720"/>
<text text-anchor="middle" x="370" y="-698.3" font-family="DejaVu Sans" font-size="14.00" fill="#18181b">4. API verifies token and server&#45;side authorization</text>
</g>
<!-- s3&#45;&gt;s4 -->
<g id="edge4" class="edge">
<title>s3&#45;&gt;s4</title>
<path fill="none" stroke="#71717a" d="M370,-764.86C370,-754.2 370,-740.29 370,-728.37"/>
<polygon fill="#71717a" stroke="#71717a" points="372.8,-728.11 370,-720.11 367.2,-728.11 372.8,-728.11"/>
</g>
<!-- s5 -->
<g id="node6" class="node">
<title>s5</title>
<path fill="#fafafa" stroke="#d4d4d8" d="M601.5,-639C601.5,-639 138.5,-639 138.5,-639 132.5,-639 126.5,-633 126.5,-627 126.5,-627 126.5,-615 126.5,-615 126.5,-609 132.5,-603 138.5,-603 138.5,-603 601.5,-603 601.5,-603 607.5,-603 613.5,-609 613.5,-615 613.5,-615 613.5,-627 613.5,-627 613.5,-633 607.5,-639 601.5,-639"/>
<text text-anchor="middle" x="370" y="-617.3" font-family="DejaVu Sans" font-size="14.00" fill="#18181b">5. Validate category, description, coordinates and image metadata</text>
</g>
<!-- s4&#45;&gt;s5 -->
<g id="edge5" class="edge">
<title>s4&#45;&gt;s5</title>
<path fill="none" stroke="#71717a" d="M370,-683.86C370,-673.2 370,-659.29 370,-647.37"/>
<polygon fill="#71717a" stroke="#71717a" points="372.8,-647.11 370,-639.11 367.2,-647.11 372.8,-647.11"/>
</g>
<!-- s6 -->
<g id="node7" class="node">
<title>s6</title>
<path fill="#fafafa" stroke="#d4d4d8" d="M501,-558C501,-558 239,-558 239,-558 233,-558 227,-552 227,-546 227,-546 227,-534 227,-534 227,-528 233,-522 239,-522 239,-522 501,-522 501,-522 507,-522 513,-528 513,-534 513,-534 513,-546 513,-546 513,-552 507,-558 501,-558"/>
<text text-anchor="middle" x="370" y="-536.3" font-family="DejaVu Sans" font-size="14.00" fill="#18181b">6. Optional geocoding / image upload</text>
</g>
<!-- s5&#45;&gt;s6 -->
<g id="edge6" class="edge">
<title>s5&#45;&gt;s6</title>
<path fill="none" stroke="#71717a" d="M370,-602.86C370,-592.2 370,-578.29 370,-566.37"/>
<polygon fill="#71717a" stroke="#71717a" points="372.8,-566.11 370,-558.11 367.2,-566.11 372.8,-566.11"/>
</g>
<!-- s7 -->
<g id="node8" class="node">
<title>s7</title>
<path fill="#fafafa" stroke="#d4d4d8" d="M561,-477C561,-477 179,-477 179,-477 173,-477 167,-471 167,-465 167,-465 167,-453 167,-453 167,-447 173,-441 179,-441 179,-441 561,-441 561,-441 567,-441 573,-447 573,-453 573,-453 573,-465 573,-465 573,-471 567,-477 561,-477"/>
<text text-anchor="middle" x="370" y="-455.3" font-family="DejaVu Sans" font-size="14.00" fill="#18181b">7. Query nearby open issues with compatible category</text>
</g>
<!-- s6&#45;&gt;s7 -->
<g id="edge7" class="edge">
<title>s6&#45;&gt;s7</title>
<path fill="none" stroke="#71717a" d="M370,-521.86C370,-511.2 370,-497.29 370,-485.37"/>
<polygon fill="#71717a" stroke="#71717a" points="372.8,-485.11 370,-477.11 367.2,-485.11 372.8,-485.11"/>
</g>
<!-- s8 -->
<g id="node9" class="node">
<title>s8</title>
<path fill="#fafafa" stroke="#d4d4d8" d="M358.83,-391.62C358.83,-391.62 307.17,-371.38 307.17,-371.38 301.59,-369.19 301.59,-364.81 307.17,-362.62 307.17,-362.62 358.83,-342.38 358.83,-342.38 364.41,-340.19 375.59,-340.19 381.17,-342.38 381.17,-342.38 432.83,-362.62 432.83,-362.62 438.41,-364.81 438.41,-369.19 432.83,-371.38 432.83,-371.38 381.17,-391.62 381.17,-391.62 375.59,-393.81 364.41,-393.81 358.83,-391.62"/>
<text text-anchor="middle" x="370" y="-363.3" font-family="DejaVu Sans" font-size="14.00" fill="#18181b">Match?</text>
</g>
<!-- s7&#45;&gt;s8 -->
<g id="edge8" class="edge">
<title>s7&#45;&gt;s8</title>
<path fill="none" stroke="#71717a" d="M370,-440.65C370,-430.34 370,-416.87 370,-404.34"/>
<polygon fill="#71717a" stroke="#71717a" points="372.8,-404.28 370,-396.28 367.2,-404.28 372.8,-404.28"/>
</g>
<!-- s9a -->
<g id="node10" class="node">
<title>s9a</title>
<path fill="#fafafa" stroke="#d4d4d8" d="M335.5,-279C335.5,-279 52.5,-279 52.5,-279 46.5,-279 40.5,-273 40.5,-267 40.5,-267 40.5,-255 40.5,-255 40.5,-249 46.5,-243 52.5,-243 52.5,-243 335.5,-243 335.5,-243 341.5,-243 347.5,-249 347.5,-255 347.5,-255 347.5,-267 347.5,-267 347.5,-273 341.5,-279 335.5,-279"/>
<text text-anchor="middle" x="194" y="-257.3" font-family="DejaVu Sans" font-size="14.00" fill="#18181b">8A. Create report linked to existing issue</text>
</g>
<!-- s8&#45;&gt;s9a -->
<g id="edge9" class="edge">
<title>s8&#45;&gt;s9a</title>
<path fill="none" stroke="#71717a" d="M341.33,-349.06C310.99,-331.13 263.05,-302.8 230.14,-283.36"/>
<polygon fill="#71717a" stroke="#71717a" points="231.26,-280.77 222.95,-279.11 228.41,-285.59 231.26,-280.77"/>
<text text-anchor="middle" x="294.5" y="-304.8" font-family="DejaVu Sans" font-size="14.00" fill="#52525b">yes</text>
</g>
<!-- s9b -->
<g id="node11" class="node">
<title>s9b</title>
<path fill="#fafafa" stroke="#d4d4d8" d="M702.5,-279C702.5,-279 391.5,-279 391.5,-279 385.5,-279 379.5,-273 379.5,-267 379.5,-267 379.5,-255 379.5,-255 379.5,-249 385.5,-243 391.5,-243 391.5,-243 702.5,-243 702.5,-243 708.5,-243 714.5,-249 714.5,-255 714.5,-255 714.5,-267 714.5,-267 714.5,-273 708.5,-279 702.5,-279"/>
<text text-anchor="middle" x="547" y="-257.3" font-family="DejaVu Sans" font-size="14.00" fill="#18181b">8B. Create new issue, then report linked to it</text>
</g>
<!-- s8&#45;&gt;s9b -->
<g id="edge10" class="edge">
<title>s8&#45;&gt;s9b</title>
<path fill="none" stroke="#71717a" d="M398.83,-349.06C429.34,-331.13 477.56,-302.8 510.65,-283.36"/>
<polygon fill="#71717a" stroke="#71717a" points="512.41,-285.57 517.89,-279.11 509.57,-280.75 512.41,-285.57"/>
<text text-anchor="middle" x="488" y="-304.8" font-family="DejaVu Sans" font-size="14.00" fill="#52525b">no</text>
</g>
<!-- s10 -->
<g id="node12" class="node">
<title>s10</title>
<path fill="#fafafa" stroke="#d4d4d8" d="M554,-198C554,-198 186,-198 186,-198 180,-198 174,-192 174,-186 174,-186 174,-174 174,-174 174,-168 180,-162 186,-162 186,-162 554,-162 554,-162 560,-162 566,-168 566,-174 566,-174 566,-186 566,-186 566,-192 560,-198 554,-198"/>
<text text-anchor="middle" x="370" y="-176.3" font-family="DejaVu Sans" font-size="14.00" fill="#18181b">9. Insert status/history/audit entries when applicable</text>
</g>
<!-- s9a&#45;&gt;s10 -->
<g id="edge11" class="edge">
<title>s9a&#45;&gt;s10</title>
<path fill="none" stroke="#71717a" d="M232.19,-242.86C259.29,-230.69 295.79,-214.31 324.41,-201.46"/>
<polygon fill="#71717a" stroke="#71717a" points="325.73,-203.94 331.89,-198.11 323.44,-198.83 325.73,-203.94"/>
</g>
<!-- s9b&#45;&gt;s10 -->
<g id="edge12" class="edge">
<title>s9b&#45;&gt;s10</title>
<path fill="none" stroke="#71717a" d="M508.59,-242.86C481.34,-230.69 444.64,-214.31 415.85,-201.46"/>
<polygon fill="#71717a" stroke="#71717a" points="416.78,-198.81 408.33,-198.11 414.5,-203.93 416.78,-198.81"/>
</g>
<!-- s11 -->
<g id="node13" class="node">
<title>s11</title>
<path fill="#fafafa" stroke="#d4d4d8" d="M452,-117C452,-117 288,-117 288,-117 282,-117 276,-111 276,-105 276,-105 276,-93 276,-93 276,-87 282,-81 288,-81 288,-81 452,-81 452,-81 458,-81 464,-87 464,-93 464,-93 464,-105 464,-105 464,-111 458,-117 452,-117"/>
<text text-anchor="middle" x="370" y="-95.3" font-family="DejaVu Sans" font-size="14.00" fill="#18181b">10. Commit transaction</text>
</g>
<!-- s10&#45;&gt;s11 -->
<g id="edge13" class="edge">
<title>s10&#45;&gt;s11</title>
<path fill="none" stroke="#71717a" d="M370,-161.86C370,-151.2 370,-137.29 370,-125.37"/>
<polygon fill="#71717a" stroke="#71717a" points="372.8,-125.11 370,-117.11 367.2,-125.11 372.8,-125.11"/>
</g>
<!-- s12 -->
<g id="node14" class="node">
<title>s12</title>
<path fill="#fafafa" stroke="#d4d4d8" d="M547,-36C547,-36 193,-36 193,-36 187,-36 181,-30 181,-24 181,-24 181,-12 181,-12 181,-6 187,0 193,0 193,0 547,0 547,0 553,0 559,-6 559,-12 559,-12 559,-24 559,-24 559,-30 553,-36 547,-36"/>
<text text-anchor="middle" x="370" y="-14.3" font-family="DejaVu Sans" font-size="14.00" fill="#18181b">11. Return reportId, issueId, matchedExistingIssue</text>
</g>
<!-- s11&#45;&gt;s12 -->
<g id="edge14" class="edge">
<title>s11&#45;&gt;s12</title>
<path fill="none" stroke="#71717a" d="M370,-80.86C370,-70.2 370,-56.29 370,-44.37"/>
<polygon fill="#71717a" stroke="#71717a" points="372.8,-44.11 370,-36.11 367.2,-44.11 372.8,-44.11"/>
</g>
</g>
</svg>
